<svg width="140" height="36" viewBox="0 0 140 36" fill="none" xmlns="http://www.w3.org/2000/svg">
  <rect x="1" y="1" width="34" height="34" rx="10" fill="#0F172A" stroke="#34D399" stroke-width="2"/>
  <path d="M18 8L25 26H22L20.6 22H15.4L14 26H11L18 8ZM16.2 19.5H19.8L18 14.2L16.2 19.5Z" fill="#34D399"/>
  <path d="M45 24.5V11.5H48.8L54.6 20.5V11.5H57.6V24.5H53.9L48.1 15.6V24.5H45Z" fill="#E2E8F0"/>
  <path d="M62 24.5V11.5H65.2V24.5H62Z" fill="#E2E8F0"/>
  <path d="M69 24.5L74 11.5H77.6L82.6 24.5H79.2L78.3 22.1H73.2L72.3 24.5H69ZM74.2 19.8H77.3L75.7 15.4L74.2 19.8Z" fill="#E2E8F0"/>
  <path d="M85 24.5V11.5H90.2C92.6 11.5 94.5 12.2 95.8 13.5C97.1 14.8 97.8 16.6 97.8 19C97.8 21.4 97.1 23.2 95.8 24.5C94.5 25.8 92.6 26.5 90.2 26.5H85V24.5ZM88.2 21.9H90.1C91.4 21.9 92.4 21.5 93 20.8C93.6 20.1 93.9 19.1 93.9 17.9C93.9 16.7 93.6 15.8 93 15.1C92.4 14.4 91.4 14 90.1 14H88.2V21.9Z" fill="#E2E8F0"/>
</svg>
